<?xml version="1.0" encoding="UTF-8" standalone="no"?>
<svg xmlns:rdf="http://www.w3.org/1999/02/22-rdf-syntax-ns#" xmlns="http://www.w3.org/2000/svg" xml:space="preserve" height="95.481" viewBox="0 0 83.669999 95.481248" width="83.67" version="1.1" xmlns:cc="http://creativecommons.org/ns#" xmlns:dc="http://purl.org/dc/elements/1.1/"><g transform="matrix(1.25 0 0 -1.25 -342.17 822.14)"><g transform="translate(.40063 .40063)"><g fill="#fff" transform="translate(309.41 596.94)"><path d="m6.8438 6.6816v27.379h5.9043v-21.205h57.17v21.205h5.9082v-27.379h-68.982zm12.797 12.711v14.676h5.9023v-8.5977h6.6211v43.484h-10.332v6.0156h16.238v-55.578h-18.43zm24.959 0v55.58h16.238v-6.0176h-10.332v-43.482h6.6191v8.5957h5.9043v-14.676h-18.43zm-22.768 62.389v6.0176h38.963v-6.0176h-38.963z" transform="matrix(.8 0 0 -.8 -35.679 59.977)" fill="#fff"/></g><path d="m273.73 581.33h66.136v75.585h-66.136v-75.585zm5.475 70.24h55.186v-21.903h-4.727v16.963h-45.735v-16.963h-4.724v21.903zm30.204-10.169h14.745v-11.741h-4.724v6.878h-5.295v-34.787h8.265v-4.813h-12.991v44.463zm-19.967 0h14.744v-44.463h-12.99v4.813h8.266v34.787h-5.297v-6.878h-4.723v11.741zm1.754-49.911h31.17v-4.814h-31.17v4.814z" fill="#981e32"/></g></g></svg>
